# xmcd
#
# Track frame offsets:
# 150
# 14490
# 33140
# 46230
# 51709
# 65766
# 76909
# 89127
# 99658
# 110974
# 128517
# 142752
# 154605
# 168329
# 184969
# 195860
# 217683
# 227214
#
# Disc length: 3184 seconds
#
# Revision: 1
# Processed by: cddbd v1.5.2PL0 Copyright (c) Steve Scherf et al.
# Submitted via: Easy CD Ripper 2.3.10
#
DISCID=f30c6e12
DTITLE=Koerner, Ray and Glover - The Return Of Koerner, Ray and Glover
DYEAR=1965
DGENRE=Blues
TTITLE0=I Want to See My BabyI - Koerner, Ray and Glover
TTITLE1=Titanic - Koerner, Ray and Glover
TTITLE2=You've Got To Be Careful - Koerner, Ray and Glover
TTITLE3=Looky, Looky Yonder - Koerner, Ray and Glover
TTITLE4=Statesboro Blues - Koerner, Ray and Glover
TTITLE5=Eugene C. - Koerner, Ray and Glover
TTITLE6=Goin' To The Country - Koerner, Ray and Glover
TTITLE7=The Boys Was Shootin' It Out Last Night - Koerner, Ray and Glover
TTITLE8=Poor Howard - Koerner, Ray and Glover
TTITLE9=I Don't Want To Be Terrified - Koerner, Ray and Glover
TTITLE10=Don't Let Your Right Hand Know What Your Left Hand Do - Koerner, Ray and Glover
TTITLE11=Lonesome Road - Koerner, Ray and Glover
TTITLE12=England Blues - Koerner, Ray and Glover
TTITLE13=Packin' Trunk - Koerner, Ray and Glover
TTITLE14=John Hardy - Koerner, Ray and Glover
TTITLE15=Miss My Baby - Koerner, Ray and Glover
TTITLE16=Won't You Give Me Some Love - Koerner, Ray and Glover
TTITLE17=Don't Stop - Koerner, Ray and Glover
EXTD=
EXTT0=
EXTT1=
EXTT2=
EXTT3=
EXTT4=
EXTT5=
EXTT6=
EXTT7=
EXTT8=
EXTT9=
EXTT10=
EXTT11=
EXTT12=
EXTT13=
EXTT14=
EXTT15=
EXTT16=
EXTT17=
PLAYORDER=
